<svg width="58" height="31" viewBox="0 0 58 31" fill="none" xmlns="http://www.w3.org/2000/svg">
<path d="M0 0V27.1169C0 29.1969 1.6862 30.8831 3.76623 30.8831H31.8884C36.1583 30.8831 40.127 28.6773 42.39 25.0463L45.7079 19.7227L52.6935 30.8831H58L48.2256 15.683L58 0H53.0937L45.7079 11.7087L38.2903 0H33.3628L43.1901 15.7002L38.5465 23.0617C37.0298 25.4662 34.3905 26.9237 31.5533 26.9237C26.9833 26.9237 23.2785 23.2086 23.2785 18.6256V0H19.5044V18.4643C19.5044 21.7816 20.8015 24.7951 22.9147 27.0227H6.10929C4.86127 27.0227 3.84956 26.011 3.84956 24.763V0H0Z" fill="white"/>
</svg>
